<svg width="68" height="44" viewBox="0 0 68 44" fill="none" xmlns="http://www.w3.org/2000/svg">
<path d="M5.41799 43.3561H19.7887C20.6289 43.3561 22.3773 43.2004 22.4923 41.9373V38.1482V35.3655V31.5764V29.5773C22.4923 29.5773 22.4923 30.3133 22.4923 29.0502C22.4923 29.0502 23.8441 27.1851 24.0179 26.9361L32.2761 16.2412C32.4789 15.9922 32.6528 15.6879 32.6528 15.3835C32.6528 14.8855 32.1892 14.5258 31.349 14.5258H24.9749C24.1346 14.5258 23.6711 14.2215 23.6711 13.7234C23.6711 13.4191 23.8739 13.0317 24.0477 12.7827L32.363 2.24113C32.8266 1.68776 33.464 1.49408 34.0435 1.49408C34.6229 1.49408 35.2603 1.68776 35.7239 2.24113L44.0392 12.7827C44.242 13.0317 44.4159 13.3914 44.4159 13.7234C44.4159 14.2215 43.9523 14.5258 43.1121 14.5258H36.738C35.8977 14.5258 35.4342 14.8855 35.4342 15.3835C35.4342 15.6879 35.637 15.9922 35.8108 16.2412L43.8671 26.7807C44.0699 27.0297 45.1312 28.0438 45.1312 28.0438V29.3068V30.5699C45.1312 30.5699 45.1312 33.9163 45.1312 34.359V36.8851V41.9373C46.3953 43.2004 47.5449 43.3561 48.2982 43.3561H62.669C63.712 43.3561 64.2914 42.9964 64.2914 42.36C64.2914 42.0004 64.0886 41.613 63.9148 41.364L55.4836 30.435C55.2808 30.186 55.107 29.8817 55.107 29.5773C55.107 29.1346 55.5705 28.8856 56.3238 28.8856H66.4355C67.4785 28.8856 68 28.5259 68 27.8896C68 27.5299 67.7972 27.1425 67.6233 26.8935L46.9655 0.747043C46.5888 0.249015 46.1832 0 45.2851 0H22.0776C21.4981 0 20.8607 0.110674 20.3971 0.747043L0.376665 26.8935C0.115907 27.2532 0 27.5852 0 27.8896C0 28.4983 0.52152 28.8856 1.56455 28.8856H11.6762C12.4585 28.8856 12.8931 29.1346 12.8931 29.5773C12.8931 29.8817 12.6902 30.186 12.5164 30.435L4.08523 41.364C3.88241 41.613 3.70856 41.9727 3.70856 42.36C3.70856 42.9687 4.28804 43.3561 5.33107 43.3561" fill="white"/>
<rect x="30.5638" y="31.5142" width="7.16062" height="11.9344" fill="white"/>
</svg>
