<svg width="2561" height="518" viewBox="0 0 2561 518" fill="none" xmlns="http://www.w3.org/2000/svg">
<g clip-path="url(#clip0_104_532)">
<path d="M2561 460.11C2558.61 468.71 2556.31 477.32 2550.88 484.69C2540.06 499.36 2525.16 507.59 2507.7 511.18C2481.44 516.58 2455.35 516.36 2430.54 504.84C2408.35 494.54 2396.26 476.75 2394.02 452.32C2393.69 448.74 2394.42 447.3 2398.42 447.41C2408.57 447.69 2418.73 447.48 2428.89 447.53C2430.6 447.53 2432.6 446.98 2433.01 449.81C2435.62 467.74 2447.5 476.06 2464.06 479.5C2477.62 482.32 2490.84 481.43 2503.57 475.82C2508.98 473.43 2513.56 469.9 2516.94 464.94C2524.81 453.39 2522.24 439.6 2510.62 431.84C2502.2 426.22 2492.51 423.74 2482.9 421.09C2466.61 416.59 2449.76 413.92 2434.38 406.44C2418.79 398.86 2405.55 388.96 2401.14 371.01C2395.14 346.57 2404.29 323.4 2425.41 308.81C2454.05 289.02 2501.94 288.35 2530.99 307.51C2545.73 317.24 2554.95 330.72 2557.65 348.38C2558.75 355.53 2558.6 355.78 2551.62 355.79C2542.29 355.79 2532.97 355.79 2523.64 355.79C2521.76 355.79 2519.98 355.88 2519.49 353.36C2516.41 337.49 2505.17 330.47 2490.6 327.83C2479.7 325.85 2468.66 326.1 2458.19 330.39C2448.26 334.46 2440.96 340.92 2439.88 352.49C2439 361.96 2443.05 368.87 2450.7 373.96C2460.16 380.25 2471.09 382.6 2481.88 385.28C2497.49 389.17 2513.3 392.35 2527.72 399.98C2544.54 408.88 2556.89 421.28 2560.33 440.81C2560.41 441.28 2560.75 441.7 2560.97 442.14V460.11H2561Z" fill="black"/>
<path d="M91.3502 113.63C90.2402 116.29 90.6902 118.44 90.6802 120.54C90.6502 250.29 90.6602 380.03 90.6602 509.78C90.6602 514.153 88.5435 516.343 84.3102 516.35C58.4902 516.35 32.6602 516.27 6.84016 516.44C2.86016 516.47 1.91016 515.3 1.91016 511.43C2.01016 343.26 2.00016 175.09 1.91016 6.92013C1.91016 3.16013 2.67016 1.89013 6.75016 1.91013C40.7402 2.09013 74.7201 2.05013 108.71 1.94013C111.71 1.94013 113.52 2.96013 115.36 5.23013C248.7 170.65 382.09 336.02 515.48 501.39C517.98 504.49 520.47 507.59 523.2 510.97C524.76 508.81 524.11 506.62 524.11 504.62C524.13 342.6 524.11 180.59 524.09 18.5701C524.09 14.9101 524.35 11.2301 524.02 7.60013C523.65 3.40013 524.75 1.16013 529.4 2.04013C529.72 2.10013 530.06 2.04013 530.4 2.04013C675.01 2.04013 819.61 2.07013 964.22 1.91013C969.43 1.91013 970.51 3.36013 970.45 8.27013C970.19 31.7201 970.2 55.1801 970.45 78.6301C970.5 83.4201 969.2 84.7201 964.38 84.7101C849.43 84.5701 734.48 84.6001 619.52 84.6201C611.61 84.6201 612.82 83.7801 612.81 91.1201C612.77 131.21 612.85 171.3 612.69 211.38C612.67 215.55 613.79 216.58 617.93 216.58C710.06 216.46 802.19 216.54 894.32 216.35C899.56 216.34 900.56 217.85 900.51 222.72C900.25 246 900.2 269.3 900.54 292.58C900.62 297.91 898.9 298.76 894.08 298.75C802.45 298.61 710.82 298.65 619.19 298.65C614.924 298.65 612.79 300.783 612.79 305.05C612.79 346.3 612.86 387.56 612.68 428.81C612.66 433.16 613.66 434.3 618.12 434.3C733.41 434.16 848.69 434.19 963.98 434.19C968.22 434.19 970.34 436.347 970.34 440.66C970.34 463.95 970.18 487.24 970.47 510.52C970.53 515.58 969.21 516.87 964.12 516.86C821.68 516.71 679.24 516.74 536.8 516.74C498.49 516.74 460.17 516.69 421.86 516.86C417.94 516.88 415.47 515.62 413.08 512.64C356.47 442.24 299.78 371.91 243.11 301.57C193.33 239.77 143.55 177.97 93.7602 116.18C93.1402 115.41 92.4102 114.73 91.3602 113.6L91.3502 113.63Z" fill="black"/>
<path d="M1606.7 516.92C1584.65 516.92 1563 516.92 1541.36 516.92C1526.37 516.92 1511.37 516.81 1496.38 517C1492.88 517.05 1490.58 516.06 1488.37 513.32C1433.13 444.6 1377.81 375.94 1322.49 307.28C1250.58 218.02 1178.65 128.78 1106.72 39.53C1097.95 28.65 1089.15 17.79 1080.42 6.88001C1079.44 5.65001 1077.98 4.63001 1077.84 2.71001C1079.54 1.62001 1081.4 2.17001 1083.13 2.17001C1117.78 2.13001 1152.43 2.21001 1187.09 2.05001C1191.18 2.03001 1193.71 3.35001 1196.25 6.51001C1243.67 65.52 1291.2 124.43 1338.72 183.36C1339.76 184.65 1340.85 185.9 1341.9 187.14C1343.41 186.74 1344.05 185.5 1344.86 184.49C1392.06 125.95 1439.31 67.46 1486.33 8.78001C1489.82 4.42001 1493.27 2.83001 1498.78 2.86001C1533.26 3.04001 1567.75 2.84001 1602.23 2.79001C1603.49 2.79001 1604.85 2.37001 1606.05 3.32001C1606.17 4.88001 1604.91 5.65001 1604.13 6.62001C1537.16 89.83 1470.18 173.03 1403.08 256.14C1400.63 259.18 1401.13 260.83 1403.3 263.52C1470.1 346.23 1536.83 428.99 1603.56 511.76C1604.67 513.14 1606.18 514.3 1606.7 516.9V516.92Z" fill="black"/>
<path d="M1926.36 2.05023C1998.65 2.05023 2070.94 2.10023 2143.23 1.93023C2148.15 1.92023 2149.24 3.25023 2149.19 7.99023C2148.93 31.4402 2149.07 54.8902 2149.07 78.3402C2149.07 82.5269 2146.88 84.6202 2142.5 84.6202C2087.7 84.6202 2032.9 84.6802 1978.1 84.5102C1973.37 84.4902 1972.06 85.5302 1972.06 90.4402C1972.21 230.47 1972.15 370.51 1972.29 510.54C1972.29 515.43 1971.33 516.98 1966.09 516.92C1940.61 516.61 1915.12 516.65 1889.64 516.9C1884.69 516.95 1883.25 515.83 1883.26 510.65C1883.42 370.78 1883.39 230.92 1883.37 91.0502C1883.37 83.7902 1884.33 84.6502 1877.04 84.6502C1820.91 84.6202 1764.77 84.5902 1708.64 84.7302C1704.4 84.7402 1702.94 83.8902 1702.99 79.3202C1703.23 55.3702 1703.22 31.4202 1703 7.48023C1702.96 3.13023 1704.03 1.96023 1708.48 1.97023C1781.1 2.12023 1853.73 2.08023 1926.35 2.08023L1926.36 2.05023Z" fill="black"/>
<path d="M1076.71 516.83C1102.5 484.84 1127.66 453.64 1152.81 422.45C1185.17 382.31 1217.54 342.18 1249.89 302.04C1253.43 297.64 1253.4 297.63 1257.08 302.2C1274.2 323.44 1291.25 344.73 1308.51 365.85C1310.96 368.84 1311.03 370.61 1308.55 373.67C1270.75 420.32 1233.08 467.09 1195.44 513.87C1193.79 515.92 1192.28 517.22 1189.34 517.21C1153.03 517.09 1116.72 517.14 1080.41 517.12C1079.47 517.12 1078.52 516.98 1076.69 516.83H1076.71Z" fill="black"/>
<path d="M2319.4 376.8C2319.4 351.7 2319.47 326.59 2319.32 301.49C2319.3 297.68 2320.19 296.28 2324.28 296.4C2334.43 296.7 2344.59 296.6 2354.75 296.44C2357.87 296.39 2359.09 297.1 2359.08 300.53C2358.96 350.4 2359.28 400.28 2358.86 450.15C2358.57 484.17 2336.11 508.49 2302 513.09C2284.48 515.45 2267.41 514.07 2251.46 505.99C2232.15 496.21 2222.15 480.28 2221.03 458.64C2220.82 454.68 2222.14 453.98 2225.72 454.06C2235.54 454.29 2245.37 454.38 2255.18 454.02C2259.28 453.87 2260.46 455.22 2260.99 459.07C2262.79 472.14 2271.43 479.76 2286.13 481.81C2298.94 483.6 2310.62 477.82 2315.66 467.02C2317.85 462.32 2319.18 457.33 2319.19 452.11C2319.23 427.01 2319.21 401.91 2319.21 376.81C2319.28 376.81 2319.34 376.81 2319.41 376.81L2319.4 376.8Z" fill="black"/>
<path d="M2192.13 490.54C2192.03 503.04 2181.35 513.43 2168.58 513.44C2155.52 513.45 2145.1 503 2145.21 490C2145.32 477.57 2156.22 467.12 2168.91 467.27C2181.54 467.43 2192.23 478.14 2192.13 490.54Z" fill="black"/>
</g>
<defs>
<clipPath id="clip0_104_532">
<rect width="2561" height="517.21" fill="white"/>
</clipPath>
</defs>
</svg>
