<svg width="999" height="337" viewBox="0 0 999 337" fill="none" xmlns="http://www.w3.org/2000/svg">
<path d="M700.94 169C700.94 145.51 701.04 122.02 700.9 98.5298C700.83 87.8398 705.35 79.8898 714.42 74.6198C754.84 51.0998 795.3 27.6498 835.8 4.26977C845.23 -1.17023 854.89 -0.960224 864.31 4.48978C904.36 27.6598 944.37 50.8898 984.41 74.0698C994.03 79.6398 998.86 87.7898 998.84 99.0398C998.74 145.52 998.76 192 998.83 238.48C998.85 249.49 994.22 257.66 984.75 263.15C944.72 286.34 904.72 309.59 864.63 332.67C855.47 337.95 845.79 338.21 836.53 332.88C822.68 324.92 809.04 316.6 795.31 308.43C794.04 307.67 792.28 307.01 792.53 305.3C792.78 303.6 794.72 303.45 796.09 303C801.33 301.29 806.4 299.19 811.06 296.23C813.51 294.68 815.58 294.96 817.97 296.43C827.05 302 836.26 307.34 845.32 312.94C848.2 314.72 850.57 314.82 853.59 313.07C893.14 290.04 932.74 267.09 972.38 244.23C975.2 242.6 976.3 240.69 976.3 237.47C976.22 191.49 976.21 145.51 976.32 99.5298C976.32 96.0298 975 94.0598 972.11 92.3998C932.72 69.7498 893.36 47.0598 854.06 24.2698C850.75 22.3498 848.12 22.4698 844.86 24.3598C805.56 47.1498 766.2 69.8398 726.82 92.4798C723.87 94.1698 722.68 96.2298 722.69 99.6698C722.78 145.48 722.78 191.29 722.7 237.11C722.7 240.48 723.71 242.6 726.78 244.3C736.68 249.78 746.4 255.57 756.19 261.25C759.38 263.1 762.73 264.48 766.34 265.3C778.47 268.05 787.74 260.97 787.83 248.6C787.94 233.61 787.86 218.61 787.86 203.62C787.86 173.47 787.86 143.31 787.86 113.16C787.86 106.18 788.14 105.92 795.27 105.91C797.6 105.91 799.94 105.91 802.27 105.91C808.097 105.91 811.01 108.743 811.01 114.41C811.01 132.9 811.03 151.39 811.01 169.88C810.98 197.53 811.01 225.19 810.85 252.84C810.8 261.16 808.76 269.08 803.63 275.81C794.47 287.83 781.52 289.69 767.71 288.4C759.11 287.6 751.39 283.87 743.95 279.73C734.35 274.39 724.86 268.86 715.32 263.41C705.67 257.9 700.79 249.82 700.89 238.48C701.1 215.33 700.95 192.17 700.95 169.01L700.94 169Z" fill="#57A045"/>
<path d="M490.2 126.46C490.2 156.94 490.11 187.43 490.29 217.91C490.32 223.4 488.45 226.79 483.56 229.45C462.95 240.64 442.46 252.06 422.04 263.59C417.49 266.16 413.59 266.21 408.99 263.61C388.57 252.07 368.07 240.69 347.46 229.5C342.6 226.86 340.69 223.56 340.76 217.98C341.03 195.16 340.96 172.34 340.8 149.52C340.77 144.78 342.39 141.82 346.58 139.53C367.74 127.96 388.8 116.21 409.86 104.45C413.74 102.28 417.34 102.31 421.17 104.49C428.98 108.93 436.95 113.08 444.67 117.66C448.49 119.93 449.46 119.47 449.44 114.9C449.3 82.0798 449.36 49.2698 449.36 16.4498C449.36 6.07984 450.32 5.48985 459.2 10.4398C467.48 15.0598 475.67 19.8399 484.08 24.2099C488.67 26.5999 490.32 29.8698 490.29 34.9998C490.11 65.4798 490.2 95.9699 490.2 126.45V126.46ZM449.35 186.71C449.35 179.3 449.25 174.31 449.39 169.32C449.47 166.5 448.48 164.75 445.92 163.37C436.85 158.49 427.87 153.45 418.92 148.35C416.46 146.95 414.33 147.06 411.93 148.43C402.97 153.51 393.99 158.56 384.93 163.45C382.41 164.81 381.3 166.58 381.32 169.38C381.38 179.2 381.4 189.01 381.31 198.83C381.28 201.87 382.52 203.7 385.18 205.14C394.1 209.95 402.94 214.9 411.76 219.9C414.34 221.36 416.64 221.43 419.23 219.9C423.66 217.27 428.01 214.36 432.74 212.44C445.61 207.22 454.05 199.72 449.37 186.7L449.35 186.71Z" fill="#394951"/>
<path d="M313.55 185C313.55 196.83 313.47 208.65 313.6 220.48C313.64 224.18 312.45 226.98 309.21 228.78C287.12 241.08 265.02 253.36 242.91 265.62C240.06 267.2 237.14 267.02 234.32 265.46C212.35 253.29 190.39 241.1 168.41 228.94C165.16 227.14 163.83 224.44 163.84 220.74C163.91 197.09 163.96 173.44 163.85 149.79C163.83 145.25 165.6 142.33 169.54 140.17C190.83 128.48 212.08 116.71 233.29 104.87C237.01 102.79 240.46 102.72 244.13 104.76C265.51 116.61 286.91 128.45 308.31 140.26C312.21 142.41 313.75 145.41 313.62 150.03C313.29 161.68 313.51 173.34 313.51 185H313.54H313.55Z" fill="#57A045"/>
<path d="M150.39 197.96C150.39 213.62 150.39 229.28 150.39 244.93C150.39 252.91 148.96 253.79 142.24 249.91C133.45 244.84 124.79 239.54 115.88 234.69C111.4 232.25 109.54 229.14 109.61 223.95C109.87 206.3 109.61 188.64 109.78 170.98C109.82 167.01 108.61 164.57 104.98 162.69C96.5602 158.34 88.2902 153.69 80.1002 148.92C77.0202 147.12 74.5002 147.01 71.3602 148.85C63.0302 153.72 54.6002 158.41 46.0402 162.86C42.7502 164.57 41.6102 166.71 41.6402 170.32C41.7802 188.14 41.5902 205.97 41.7802 223.79C41.8302 228.86 40.1902 232.12 35.6002 234.6C26.2302 239.65 17.1702 245.25 7.94018 250.56C2.90018 253.46 0.960175 252.37 0.950175 246.57C0.910175 214.09 0.970177 181.61 0.890177 149.12C0.880177 144.58 2.73017 141.76 6.68017 139.6C27.8302 128 48.9002 116.28 69.9402 104.49C74.2302 102.09 78.0102 102.58 82.1402 104.9C102.89 116.52 123.68 128.07 144.55 139.48C148.72 141.76 150.49 144.78 150.45 149.48C150.32 165.64 150.4 181.8 150.4 197.95L150.39 197.96Z" fill="#394951"/>
<path d="M503.83 184.08C503.83 172.76 503.99 161.43 503.76 150.11C503.66 145.03 505.45 141.79 510 139.31C530.74 128.03 551.39 116.58 571.95 104.99C576.7 102.31 580.73 102.46 585.45 105.13C606 116.75 626.66 128.18 647.39 139.49C651.57 141.77 653.43 144.79 653.34 149.46C653.2 156.62 653.18 163.78 653.34 170.94C653.44 175.07 651.82 177.83 648.24 179.85C638.54 185.33 628.96 191 619.29 196.54C614.46 199.31 612.66 198.27 612.62 192.7C612.56 185.04 612.54 177.38 612.64 169.72C612.68 166.73 611.63 164.81 608.91 163.35C599.97 158.56 591.12 153.61 582.31 148.59C579.72 147.11 577.52 147.04 574.89 148.55C566.09 153.59 557.23 158.53 548.29 163.31C545.57 164.76 544.51 166.59 544.55 169.63C544.68 179.12 544.79 188.62 544.5 198.1C544.38 202.09 546.1 204.07 549.35 205.83C569.69 216.8 589.96 227.89 610.22 239C612.45 240.22 615.39 240.95 615.27 244.45C615.17 247.64 612.44 248.33 610.35 249.5C601.51 254.46 592.56 259.23 583.75 264.26C580.18 266.3 577 266.27 573.44 264.28C551.96 252.28 530.44 240.35 508.89 228.49C505.23 226.48 503.77 223.61 503.79 219.56C503.87 207.74 503.82 195.92 503.82 184.09L503.83 184.08Z" fill="#394951"/>
<path d="M884.55 101.41C894.9 101.74 905.15 102.59 915.08 105.85C933.08 111.76 942.33 124.52 944.42 142.97C944.87 146.92 943.35 149.07 939.17 148.9C938.17 148.86 937.16 148.78 936.18 148.91C927.45 150.14 920.92 148.84 918.86 138.22C917.68 132.15 912.22 128.22 906.18 126.49C891.8 122.37 877.24 122.27 862.83 126.25C856.93 127.88 852.56 131.61 851.6 138.29C850.67 144.8 852.54 148.49 858.77 150.76C869.01 154.5 879.85 155.47 890.54 156.99C901.91 158.61 913.31 160 924.31 163.53C936.95 167.6 946.95 174.34 948.9 188.7C951.12 205.04 946.47 218.71 932.24 228.11C921.49 235.21 909.26 237.52 896.67 238.32C880.07 239.38 863.67 238.52 848.11 231.95C832.19 225.23 823.63 213.12 822.73 195.75C822.45 190.37 823.47 189.25 828.84 189.2C833 189.16 837.17 189.24 841.33 189.18C844.11 189.14 845.65 190.26 846 193.15C847.67 207.09 856.39 213.66 869.59 215.38C883.37 217.18 897.14 217.67 910.74 214.14C917.16 212.48 922.37 209.18 924.38 202.3C926.8 194.01 924.36 188.67 916.3 185.57C904.82 181.16 892.63 180.35 880.58 178.95C869.83 177.71 859.12 176.31 848.9 172.42C836.73 167.79 828.59 159.71 827.24 146.32C825.8 132.02 830.3 120.09 842.53 111.69C851.3 105.67 861.27 103.27 871.61 102.11C875.9 101.63 880.24 101.61 884.56 101.38L884.55 101.41Z" fill="#57A045"/>
<path d="M565.91 184.06C566.43 181.65 564.76 178.57 567.1 176.95C570.62 174.51 574.51 171.42 578.45 171.09C582.45 170.75 586.33 174.3 589.79 176.78C592.6 178.8 590.85 182.38 590.97 185.24C591.06 187.41 592.25 190.25 589.86 191.74C586.22 194.02 582.27 197.4 578.47 197.38C574.66 197.36 570.64 194.05 567.14 191.58C564.65 189.82 566.48 186.56 565.9 184.05L565.91 184.06Z" fill="#57A045"/>
</svg>
