<svg width="1075" height="363" viewBox="0 0 1075 363" fill="none" xmlns="http://www.w3.org/2000/svg">
<path d="M79.08 300.32C78.68 284.63 81.34 270.07 84.46 255.61C85.28 251.82 84.56 250.32 80.88 249.13C61.65 242.93 43.13 235.21 26.92 222.76C17.85 215.79 9.94997 207.8 4.57997 197.58C-2.34003 184.41 -0.340033 169.64 8.77997 157.87C23.99 138.25 44.89 127.56 67.39 119.18C71.75 117.55 76.16 115.96 80.67 114.86C85.02 113.8 85.56 111.57 84.65 107.56C80.74 90.32 78.05 72.87 79.27 55.16C80.18 41.87 82.33 28.76 89.67 17.08C96.82 5.69003 111.97 -1.02997 125.37 0.690035C149.61 3.81003 169.29 16.14 187.92 30.73C192.63 34.42 197.14 38.36 201.57 42.38C203.41 44.05 204.58 44.26 206.52 42.45C217.5 32.25 229.03 22.56 242.02 15.16C256.3 7.03004 271.08 -0.539962 288.4 0.240038C301.8 0.840038 311.76 7.08003 318.47 18.53C329.43 37.25 329.82 57.74 328.21 78.52C327.4 88.96 326.07 99.34 323.25 109.46C322.34 112.72 324.06 114.06 326.79 114.85C342.53 119.4 357.69 125.43 371.6 134.07C384.21 141.9 396.08 150.68 403.11 164.49C410.8 179.61 407.09 194.69 397.3 206.87C383.77 223.72 365.22 233.43 345.8 241.63C339.68 244.21 333.32 246.25 326.99 248.3C324.14 249.22 323.47 250.65 324.22 253.47C329.26 272.33 329.77 291.6 328.8 310.91C328.13 324.26 324.39 336.9 316.34 347.71C307.84 359.12 295.92 364.23 281.83 362.39C257.35 359.19 237.45 346.32 218.89 331.02C215.05 327.85 211.34 324.5 207.71 321.09C205.15 318.69 203.44 319.97 201.35 321.83C187.9 333.81 173.77 344.83 157.39 352.63C146.98 357.59 136.31 361.82 124.66 362.54C108.24 363.55 92.5 355.75 85.24 337.16C80.54 325.12 78.49 312.49 79.08 300.3V300.32ZM203.64 245.99C214.98 246.9 226.23 245.02 237.54 245.07C239.72 245.07 241.19 244.31 242.47 242.41C255.01 223.74 265.86 204.12 276.07 184.11C277.04 182.21 277.22 180.53 276.15 178.48C265.84 158.73 255.17 139.2 242.55 120.8C241.33 119.02 240.09 117.91 237.8 117.78C215.86 116.53 193.92 116.43 171.97 117.71C168.85 117.89 166.77 118.75 164.99 121.42C152.7 139.84 141.66 158.95 132.05 178.9C131.05 180.97 131.37 182.61 132.29 184.53C136.12 192.47 140.24 200.26 144.55 207.95C150.72 218.98 157.34 229.74 164.29 240.29C165.9 242.73 167.55 245.18 171.25 245.16C182.05 245.11 192.81 246.85 203.64 245.99ZM18.86 180.34C19.57 189.96 24.92 196.57 31.03 202.11C46.98 216.55 66.15 225.25 86.58 231.46C89.79 232.43 91.16 231.68 92.06 228.67C96.64 213.35 102.86 198.65 109.18 183.99C109.88 182.36 110.03 180.96 109.3 179.25C103 164.41 96.58 149.61 92 134.11C91.3 131.75 90.19 131.12 87.61 131.88C68.02 137.69 49.34 145.39 33.39 158.48C26.28 164.32 20.14 171.11 18.85 180.34H18.86ZM97.31 300.67C98.1 307.69 97.92 315.4 99.94 322.82C105.35 342.76 114.49 346.39 131.37 342.46C154.36 337.1 172.63 323.13 189.52 307.26C191.23 305.65 191.14 304.43 189.55 302.69C178.79 290.91 168.88 278.43 159.48 265.55C158.16 263.74 156.75 263.05 154.59 262.79C138.95 260.92 123.33 258.87 107.9 255.66C103.93 254.83 102.99 256.49 102.27 259.63C99.26 272.96 98.01 286.5 97.31 300.65V300.67ZM311.1 296.92C311.02 284.06 309.29 271.42 306.37 258.9C305.5 255.15 303.81 254.56 300.38 255.21C288.15 257.52 275.91 259.74 263.53 261.12C256.67 261.88 250 262.22 245.67 269.55C238.55 281.59 229.12 292.01 219.83 302.44C217.82 304.7 218.34 306.06 220.25 307.79C227.4 314.28 234.73 320.54 242.68 326.03C255.09 334.6 268.09 341.77 283.44 343.7C292 344.77 299.19 341.23 303.35 333.63C309.64 322.14 311.17 309.73 311.09 296.93L311.1 296.92ZM97.89 61.84C97.75 76.83 99.72 90.28 102.38 103.68C103.19 107.76 104.87 108.49 108.88 107.75C123.4 105.07 137.87 101.99 152.65 100.99C155.73 100.78 157.86 99.22 159.66 96.81C169 84.28 178.62 71.96 189.26 60.49C190.8 58.83 191.24 57.64 189.34 55.99C172.94 41.78 155.99 28.53 135 21.48C115.5 14.94 104.12 21.17 99.74 41.3C98.18 48.48 97.66 55.77 97.89 61.83V61.84ZM310.24 64.93C310.41 53.69 309.41 42.64 304.68 32.23C299.52 20.88 293.13 17.33 280.81 19.23C277.54 19.73 274.26 20.53 271.17 21.69C251.68 28.99 235.32 41.08 220.22 55.13C217.69 57.49 217.76 59.12 220.11 61.69C229.44 71.87 238.33 82.43 245.99 93.96C248.99 98.48 252.61 101.63 258.68 101.18C261.91 100.94 265.25 101.92 268.52 102.48C279.31 104.31 290.08 106.22 300.87 108.07C303.02 108.44 304.48 108.24 305.14 105.42C308.26 92.09 310.42 78.67 310.24 64.95V64.93ZM388.78 181.51C388.35 172.64 383.45 166.74 377.72 161.54C361.59 146.89 341.89 138.99 321.54 132.37C318.36 131.34 316.61 132.13 315.7 135.53C311.81 150.02 305.21 163.5 299.62 177.35C298.43 180.3 298.61 182.5 299.77 185.29C305.49 199.09 312.32 212.46 316.37 226.91C317.43 230.69 319.04 231.59 322.82 230.34C331.2 227.57 339.48 224.58 347.4 220.7C359.99 214.54 372.02 207.58 381.6 197C385.81 192.35 388.09 187.04 388.76 181.49L388.78 181.51ZM268.27 242.03C277.87 240.27 287.7 239.88 297.2 237.37C300.26 236.56 300.24 235.02 299.31 232.62C295.93 223.96 292.63 215.26 289.26 206.59C288.87 205.59 288.91 204.04 287.27 204.17C285.93 204.27 285.48 205.51 284.91 206.52C278.76 217.36 272.68 228.24 266.42 239.01C264.89 241.65 265.62 242.22 268.26 242.04L268.27 242.03ZM227.48 98.78C220.05 89.89 214.22 81.41 206.8 74.25C205.54 73.04 204.49 71.15 202.38 73.26C195.33 80.31 189.25 88.16 183.18 96.03C181.95 97.63 182.19 98.79 184.55 98.79C198.44 98.79 212.33 98.79 227.47 98.79L227.48 98.78ZM144.48 243.01C136.16 230.95 130.18 218.96 123.32 207.5C122.75 206.55 122.46 205.12 120.97 205.3C119.57 205.47 119.47 206.86 119.02 207.9C115.46 216.29 112.31 224.82 109.62 233.54C108.54 237.05 109.91 238.14 112.8 238.57C118.52 239.43 124.26 240.18 129.98 240.98C134.44 241.6 138.89 242.23 144.47 243.01H144.48ZM265.03 121.15C272.09 133.53 278.77 145.31 285.53 157.03C287.23 159.98 288.2 158.34 288.99 156.25C291.73 148.95 294.56 141.69 297.22 134.36C300.07 126.54 300 126.53 292.04 124.86C290.42 124.52 288.84 123.87 287.2 123.73C280.03 123.12 273.01 120.97 265.02 121.15H265.03ZM227.63 264C211.74 265.53 197.16 264.74 181.46 264.22C188.45 273.89 195.37 281.86 202.46 289.69C204.46 291.9 205.91 290.58 207.38 289.01C214.38 281.51 220.47 273.29 227.63 264ZM143.66 120.8C131.81 121.74 121.55 123.5 111.34 125.55C109.95 125.83 108.86 126.66 109.36 128.4C112.37 138.73 116.02 148.81 121.03 159.38C128.62 146.42 135.1 133.8 143.66 120.8Z" fill="#5BC4E9"/>
<path d="M510.56 94.2601C521.11 94.8401 534.25 93.6401 547.4 94.9901C571.08 97.4201 590.46 117.61 591.77 141.43C592.47 154.18 589.92 165.91 582.56 176.43C575.66 186.28 566.07 192.14 554.5 194.95C547.81 196.58 547.89 196.65 551.58 202.15C564.74 221.75 577.73 241.46 590.9 261.05C593.31 264.64 592.05 265.68 588.41 265.73C586.74 265.75 585.08 265.74 583.41 265.75C566.38 265.76 566.59 265.64 557.52 250.88C547.33 234.31 536.65 218.03 526.35 201.53C524.5 198.57 522.3 197.69 518.98 197.78C511.49 197.98 503.98 198.08 496.49 197.75C492.17 197.56 490.75 198.75 490.81 203.27C491.06 222.09 490.8 240.92 491 259.74C491.05 264.19 489.96 266.25 485.15 265.81C481.18 265.45 477.16 265.66 473.16 265.77C469.82 265.86 468.22 264.46 468.3 261.04C468.51 251.12 468.76 241.2 468.77 231.28C468.78 221.36 468.42 211.45 468.42 201.53C468.42 191.45 468.76 181.36 468.77 171.28C468.78 161.53 468.51 151.78 468.46 142.03C468.41 131.94 468.17 121.83 468.64 111.75C468.85 107.28 467.76 102.89 468.64 98.3501C469.27 95.1201 470.51 94.2201 473.49 94.2401C484.99 94.3201 496.48 94.2701 510.55 94.2701L510.56 94.2601ZM490.91 145.91C490.91 155.07 491.14 164.23 490.81 173.37C490.65 177.93 492.38 179.11 496.62 178.93C503.41 178.64 510.23 178.9 517.03 178.81C526.32 178.7 535.68 179.61 544.81 177.06C552.24 174.98 558.84 171.29 562.98 164.75C569.88 153.82 570.33 142.04 564.72 130.5C559.08 118.9 548.3 114.72 536.36 114.15C522.57 113.49 508.73 114.05 494.91 113.93C491.89 113.9 490.81 114.89 490.86 117.95C491 127.27 490.91 136.59 490.9 145.91H490.91Z" fill="#5BC4E9"/>
<path d="M679.53 210.02C664.7 210.02 649.87 210.13 635.05 209.95C630.67 209.9 629.7 211.12 630.57 215.52C635.35 239.93 654.93 254.53 681.1 250.95C691.31 249.55 700.15 245.21 707.95 238.72C710.65 236.48 712.37 236.67 714.56 239.29C722.44 248.76 722.42 249.49 712.48 256.47C689.82 272.39 654.23 273.58 631.21 255.17C616.55 243.45 609.84 227.36 608.39 209.11C607.04 192.17 611.01 176.3 621.11 162.44C630.31 149.81 642.9 142.16 658.23 139.09C671.24 136.49 683.92 138.14 695.73 143.75C712.4 151.67 722.12 165.62 726.74 183.19C728.65 190.44 729.16 197.92 729.09 205.45C729.06 208.91 728.05 210.08 724.52 210.04C709.53 209.88 694.53 209.97 679.54 209.97V209.99L679.53 210.02ZM669.4 194.9C678.88 194.9 688.36 194.92 697.84 194.9C710.69 194.87 711.4 193.83 707.02 181.59C700.33 162.89 684.51 153.19 663.98 155.21C647.59 156.82 632.23 172.68 629.94 190.13C629.44 193.96 630.71 195.05 634.47 194.98C646.11 194.78 657.75 194.91 669.39 194.9H669.4Z" fill="#5BC4E9"/>
<path d="M856.74 220.57C856.74 233.9 856.63 247.23 856.81 260.56C856.86 264.44 855.65 266.07 851.67 265.79C848.19 265.54 844.66 265.56 841.18 265.79C837.34 266.04 835.63 264.71 835.93 260.68C836.06 258.84 837.05 256.22 834.93 255.19C832.77 254.14 831.5 256.75 829.99 257.85C814.61 269.03 797.7 271.68 779.88 265.81C753.25 257.03 745.78 227.06 757.89 205.72C766.35 190.82 786.9 184.01 803.99 186.46C814.67 187.99 824.7 191.32 832.98 198.67C834.17 199.73 835.86 200.89 835.89 198.03C835.97 189.57 837.02 180.95 834.36 172.74C831.54 164.05 824.81 158.82 816.17 157.34C799.36 154.46 783.61 156.76 771.26 170.1C768.69 172.88 767.13 172.87 764.84 169.6C757.13 158.59 756.94 158.58 767.74 150.72C785.18 138.03 804.55 135.71 825.16 140.31C838.94 143.39 849.06 150.82 853.91 164.44C855.99 170.28 856.66 176.43 856.71 182.59C856.82 195.25 856.74 207.92 856.74 220.58V220.57ZM835.98 227.32C836.013 218.96 834.2 213.143 830.54 209.87C820.21 200.64 797.88 198.26 785.84 205.1C770.07 214.06 768.33 236.43 782.67 247.4C792.47 254.9 803.52 254.49 814.9 252.19C829.61 249.22 835.92 241.94 835.98 227.32Z" fill="#5BC4E9"/>
<path d="M907.74 202.93C907.53 224.41 917.32 240.62 934.78 247.69C949.73 253.74 966.98 249.95 977.62 237.82C980.31 234.75 982.02 234.45 984.69 237.4C986.24 239.11 988.2 240.44 989.97 241.96C994.62 245.94 994.8 247.23 990.57 251.55C982.98 259.31 974.17 265.03 963.33 267.19C950.17 269.81 937.19 269.31 924.71 264.21C906.23 256.65 894.74 242.72 889.26 223.72C884.48 207.15 885.45 190.72 892.09 174.92C900.68 154.48 916.3 142.59 938.25 139C952.33 136.7 965.7 138.65 978.3 145.36C983.66 148.21 987.88 152.48 991.94 156.9C993.89 159.03 993.9 160.96 991.51 162.78C990.85 163.28 990.32 163.95 989.73 164.53C981.7 172.53 981.8 172.42 973.48 164.8C963.52 155.69 951.46 155.45 939.19 157.76C920.04 161.36 906.92 181.44 907.71 202.94L907.74 202.93Z" fill="#5BC4E9"/>
<path d="M1044.77 200.49C1044.77 212.31 1044.67 224.14 1044.8 235.96C1044.94 248.69 1054.64 254.2 1065.57 247.59C1068.94 245.55 1070.6 245.66 1071.56 249.54C1071.64 249.86 1071.82 250.15 1071.96 250.45C1076.83 261.19 1075.5 263.87 1064.13 266.99C1057.26 268.88 1050.46 269.24 1043.45 267.78C1032.57 265.52 1024.31 255.66 1024.21 243.55C1023.99 217.74 1024.09 191.93 1024.03 166.12C1024.02 159 1023.99 159 1016.93 158.97C1016.43 158.97 1015.93 158.97 1015.43 158.97C1002.08 158.94 1001.38 158.05 1003.1 144.54C1003.44 141.91 1004.78 141.21 1007.09 141.23C1011.09 141.27 1015.09 141.08 1019.08 141.27C1022.72 141.45 1024.17 140.07 1024.09 136.35C1023.91 128.36 1024.18 120.36 1023.97 112.37C1023.87 108.41 1025.38 106.97 1029.25 107.23C1032.73 107.46 1036.25 107.46 1039.74 107.23C1043.5 106.99 1044.8 108.67 1044.76 112.21C1044.67 120.37 1044.88 128.53 1044.68 136.69C1044.6 140.16 1045.73 141.46 1049.24 141.31C1054.39 141.09 1059.59 141.56 1064.72 141.16C1070.04 140.74 1070.43 144.13 1069.53 147.46C1068.46 151.4 1073.86 158.32 1064.93 158.91C1060.12 159.23 1055.26 159.19 1050.45 158.89C1046.16 158.63 1044.55 160.02 1044.65 164.51C1044.92 176.49 1044.74 188.49 1044.74 200.48H1044.76L1044.77 200.49Z" fill="#5BC4E9"/>
<path d="M240.98 180.98C240.89 198.76 226.34 217.67 203.94 217.82C183.68 217.95 166.72 200.67 167.28 180.33C167.84 159.72 183.79 144.34 203.83 144.3C226.98 144.26 240.67 163.55 240.98 180.99V180.98Z" fill="#5BC4E9"/>
</svg>
