<svg width="1707" height="214" viewBox="0 0 1707 214" fill="none" xmlns="http://www.w3.org/2000/svg">
<path d="M884.07 117.21C882.31 122.76 880.981 126.73 879.791 130.74C878.251 135.92 876.931 141.17 875.311 146.33C873.641 151.63 871.64 156.83 869.94 162.13C868.24 167.43 866.85 172.84 865.09 178.12C863.06 184.25 860.92 190.35 858.47 196.32C858.02 197.41 855.931 198.38 854.551 198.43C848.561 198.66 842.551 198.55 836.551 198.54C833.281 198.54 831.791 197.1 830.811 193.7C828.281 184.97 824.99 176.47 822.07 167.85C820.7 163.83 819.38 159.78 818.21 155.69C816.68 150.33 815.47 144.88 813.84 139.56C812.27 134.43 810.35 129.4 808.6 124.32C807.22 120.31 805.741 116.33 804.521 112.28C801.831 103.32 799.311 94.2999 796.631 85.3399C795.931 82.9999 794.71 80.8198 794.09 78.4698C793 74.3498 794.251 72.2698 799.041 72.6298C804.181 73.0098 809.371 72.7098 814.531 72.7198C820.581 72.7198 822.5 74.3998 824.11 80.3098C827.29 91.9598 830.731 103.54 833.891 115.2C835.531 121.23 836.541 127.44 838.301 133.43C840.471 140.82 843.12 148.06 845.57 155.36C845.95 155.24 846.34 155.11 846.72 154.99C848.03 151.22 849.481 147.48 850.631 143.66C852.241 138.32 853.491 132.87 855.141 127.54C856.841 122.06 858.86 116.69 860.69 111.25C862.03 107.26 863.411 103.27 864.541 99.2099C866.041 93.8499 867.19 88.3898 868.72 83.0398C869.57 80.0498 870.65 77.0598 872.11 74.3298C872.61 73.3898 874.571 72.8398 875.891 72.8098C882.221 72.6598 888.561 72.8098 894.891 72.7298C897.871 72.6998 899.041 73.9099 899.881 76.8999C902.521 86.3699 905.771 95.6699 908.631 105.09C910.301 110.6 911.55 116.24 913.22 121.75C914.94 127.39 917.001 132.92 918.811 138.53C920.301 143.16 921.611 147.84 923.031 152.49C923.331 153.48 923.77 154.44 924.6 156.58C926.55 151.16 928.16 146.95 929.58 142.68C930.77 139.11 931.841 135.49 932.771 131.84C934.311 125.81 935.53 119.69 937.2 113.69C938.73 108.21 940.801 102.88 942.401 97.4198C944.061 91.7498 945.78 86.0598 946.83 80.2598C947.99 73.7898 948.751 72.7798 955.521 72.7498C961.351 72.7298 967.191 72.6898 973.021 72.7498C977.411 72.7998 978.14 74.2599 976.72 78.3399C974.55 84.5999 972.801 90.9998 970.741 97.2898C969.121 102.25 967.281 107.13 965.551 112.06C964.091 116.24 962.46 120.37 961.23 124.62C958.6 133.71 956.351 142.9 953.621 151.95C952.121 156.93 949.871 161.69 948.111 166.6C946.621 170.78 945.251 175 943.991 179.26C942.561 184.13 941.771 189.24 939.781 193.86C938.901 195.91 935.901 198.06 933.661 198.3C927.901 198.93 921.98 198.92 916.2 198.34C914.02 198.12 911.02 196.09 910.2 194.13C908.17 189.31 907.321 184.01 905.761 178.98C902.991 170.05 900.05 161.18 897.19 152.28C895.88 148.22 894.53 144.17 893.32 140.07C891.75 134.73 890.52 129.29 888.72 124.04C887.98 121.88 886.11 120.12 884.07 117.2V117.21Z" fill="black"/>
<path d="M1300.65 87.4002C1300.81 84.9702 1301.06 82.9201 1301.06 80.8701C1301.1 63.0401 1301.19 45.2201 1301.02 27.3901C1300.98 23.3701 1302.03 21.7001 1306.32 21.9501C1311.96 22.2901 1317.66 22.2801 1323.3 21.9501C1327.64 21.6901 1328.67 23.5101 1328.65 27.4701C1328.52 50.1301 1328.57 72.7801 1328.56 95.4401C1328.56 127.43 1328.56 159.41 1328.54 191.4C1328.54 198.37 1328.39 198.49 1321.66 198.5C1317.66 198.5 1313.66 198.5 1309.67 198.5C1301.1 198.48 1301.14 198.47 1301.06 190.07C1301.03 187.56 1300.68 185.06 1299.94 182.44C1293.58 190.46 1285.36 195.97 1276.28 198.14C1267.84 200.15 1258.93 203.08 1249.74 200.22C1243.81 198.37 1237.1 198.32 1231.72 195.55C1224.79 191.99 1218.19 187.17 1212.68 181.66C1207.63 176.61 1203.77 170.18 1200.22 163.89C1197.85 159.69 1195.91 154.73 1195.6 149.99C1194.94 139.73 1194.53 129.27 1195.83 119.13C1196.65 112.77 1200.37 106.62 1203.5 100.75C1207.47 93.3001 1212.76 86.5901 1219.89 81.9501C1225.41 78.3601 1231.53 75.6701 1237.45 72.7001C1246.55 68.1301 1256.36 69.6801 1265.88 70.0501C1274.14 70.3701 1281.86 73.1802 1288.51 78.4602C1292.24 81.4202 1296.17 84.1202 1300.64 87.4002H1300.65ZM1301.08 135.15C1302.15 114.3 1284.69 95.4001 1261.1 95.7301C1238.4 96.0401 1221.5 111.81 1222.02 137.1C1222.5 160.09 1240.48 175.14 1261.56 175.15C1282.85 175.15 1301.84 159.42 1301.08 135.16V135.15Z" fill="black"/>
<path d="M626.931 86.8199C626.931 83.1999 626.661 79.7398 627.071 76.3498C627.221 75.0798 628.881 73.0299 629.931 72.9799C636.911 72.6599 643.911 72.6399 650.891 72.9199C652.001 72.9599 653.221 74.9299 654.001 76.2299C654.441 76.9699 654.101 78.1799 654.101 79.1799C654.101 116.48 654.101 153.77 654.101 191.07C654.101 196.057 651.611 198.557 646.631 198.57C641.631 198.57 636.641 198.44 631.651 198.57C628.221 198.66 626.821 197.16 626.921 193.82C627.021 190.17 626.941 186.51 626.941 182.22C620.661 187.06 615.691 191.2 610.391 194.86C607.901 196.58 604.841 198.22 601.931 198.45C592.621 199.18 583.501 203.49 573.871 199.74C569.681 198.11 565.051 197.64 560.681 196.41C550.711 193.6 543.421 187.12 536.591 179.57C529.731 171.99 524.861 163.14 521.861 153.86C519.541 146.71 521.111 138.35 520.611 130.55C519.741 117.11 525.341 105.95 532.931 95.6399C536.491 90.7999 540.491 85.9299 545.291 82.4299C550.811 78.3999 557.431 75.8599 563.571 72.6799C571.841 68.3999 580.761 69.9099 589.471 69.8999C603.111 69.8799 613.771 76.5899 623.351 85.5099C623.821 85.9499 624.251 86.4399 624.781 86.7899C625.011 86.9399 625.421 86.8199 626.961 86.8199H626.931ZM626.911 134.96C628.361 114.82 609.971 95.2899 587.141 95.5799C563.391 95.8899 547.851 113.28 547.651 135.12C547.441 159.37 565.841 175.12 587.291 175.13C608.941 175.14 627.421 159.33 626.901 134.95L626.911 134.96Z" fill="black"/>
<path d="M1084.25 85.6498C1089.54 81.7898 1093.72 78.2698 1098.36 75.5098C1102.09 73.2898 1106.27 70.8997 1110.44 70.4897C1119.94 69.5597 1129.35 69.5097 1139.05 71.7397C1153.68 75.0997 1161.37 85.2097 1167.61 96.9797C1170.27 102 1171.72 108.22 1171.81 113.93C1172.24 140.24 1171.95 166.55 1172.07 192.87C1172.09 197.11 1170.77 198.93 1166.31 198.65C1161.17 198.33 1155.98 198.33 1150.83 198.61C1145.95 198.87 1144.46 196.67 1144.49 192.12C1144.6 171.8 1144.54 151.48 1144.53 131.17C1144.53 127.01 1144.74 122.83 1144.43 118.68C1143.73 109.27 1138.91 101.3 1130.72 98.0198C1124.77 95.6398 1117.64 91.9598 1110.16 96.0698C1106.48 98.0998 1101.85 97.0198 1097.78 99.9998C1092.4 103.94 1088.82 109.11 1086.98 114.71C1084.71 121.61 1084.08 129.25 1083.92 136.6C1083.51 154.74 1083.81 172.9 1083.72 191.06C1083.69 198.59 1083.55 198.63 1076.18 198.64C1071.85 198.64 1067.52 198.64 1063.19 198.61C1058.81 198.57 1056.36 196.61 1056.36 191.96C1056.38 153.82 1056.41 115.68 1056.31 77.5397C1056.31 73.9297 1058.02 72.7898 1061.11 72.7598C1067.44 72.6998 1073.78 72.5197 1080.09 72.8697C1081.36 72.9397 1083.2 74.9497 1083.57 76.3697C1084.25 78.9697 1084.03 81.8098 1084.24 85.6398L1084.25 85.6498Z" fill="black"/>
<path d="M1475.36 102.08C1468.64 106.16 1462.95 109.82 1457.04 113.09C1455.08 114.17 1453.02 115.06 1450.75 112.01C1444.14 103.12 1435.77 97.2597 1423.89 96.6597C1413.02 96.1097 1402.82 97.6798 1394.56 104.59C1389.88 108.5 1386.1 114.21 1383.63 119.86C1381.31 125.15 1380.46 131.41 1380.33 137.27C1380.06 150.01 1392.07 167.62 1403.95 171.52C1414.41 174.95 1425.51 176.34 1435.85 171.43C1441.24 168.87 1445.85 164.4 1450.35 160.29C1453.38 157.52 1457.29 156.65 1460.73 158.93C1464.07 161.14 1467.52 163.25 1471.1 165.03C1475.67 167.31 1476.47 171.61 1473.04 175.47C1466.3 183.03 1458.75 189.64 1450.06 194.8C1447.16 196.52 1443.71 198.29 1440.48 198.33C1430.93 198.45 1421.8 203.49 1411.95 200.32C1406.19 198.47 1400.02 197.88 1394.23 196.09C1384.18 192.99 1375.61 187.27 1369.43 178.76C1364.58 172.08 1359.46 165.17 1356.61 157.56C1352.45 146.44 1349.83 134.63 1354.07 122.62C1355.69 118.02 1356.92 113.26 1358.76 108.75C1362.78 98.8898 1369.01 90.4498 1377.2 83.7598C1393.89 70.1198 1413.55 67.4498 1434.02 70.5098C1445.13 72.1698 1455.05 77.7198 1463.42 85.3998C1466.86 88.5598 1469.93 92.1798 1472.75 95.8998C1474.17 97.7698 1474.66 100.34 1475.37 102.08H1475.36Z" fill="black"/>
<path d="M1488.43 172.69C1496.1 167.87 1503.43 163.25 1511.18 158.38C1512.64 160.37 1513.97 162.17 1515.29 163.97C1519.88 170.21 1525.84 174.53 1533.59 175.42C1538.68 176.01 1543.93 175.89 1549.04 175.36C1553.99 174.85 1558.5 172.4 1560.14 167.43C1563.09 158.47 1560.66 155.35 1551.62 151.62C1544.1 148.52 1535.9 147.02 1528.43 143.82C1520.42 140.39 1511.82 138.3 1504.87 132.26C1495.71 124.32 1493.55 114.44 1494.36 103.14C1495.27 90.3597 1502.86 82.2997 1513.08 75.9597C1525.93 67.9897 1540.23 68.5797 1554.06 70.5697C1565.72 72.2497 1575.06 79.9197 1583.12 88.4797C1584.69 90.1497 1585.2 92.8197 1586.37 95.4097C1580.07 99.1197 1573.72 103 1567.19 106.53C1566.25 107.04 1563.74 106.36 1563.09 105.43C1558.47 98.8497 1551.35 96.6997 1544.33 94.3597C1543.25 93.9997 1541.92 93.6297 1540.91 93.9397C1535.84 95.4797 1529.84 96.0297 1526.04 99.1797C1518.77 105.21 1521.35 114.19 1530.43 117.35C1540.88 120.99 1551.61 123.89 1561.93 127.86C1571.64 131.59 1581.22 136.45 1585.93 146.33C1590.03 154.92 1592.3 163.75 1587.97 173.81C1583.95 183.15 1577.96 189.92 1569.8 195.21C1567.55 196.67 1564.78 198.12 1562.22 198.17C1553 198.37 1544.15 202.92 1534.71 200.35C1532.33 199.7 1529.81 199.42 1527.34 199.24C1511.55 198.08 1500.05 190.11 1491.71 177.02C1491.01 175.93 1490.15 174.94 1488.45 172.67L1488.43 172.69Z" fill="black"/>
<path d="M1657.49 68.7297C1664.7 70.1997 1672.34 70.6497 1679.03 73.3997C1688.55 77.3097 1696.6 83.8397 1702.05 92.9197C1702.53 93.7197 1701.82 96.1597 1700.94 96.7097C1695.6 100.11 1690.14 103.35 1684.54 106.28C1682.75 107.22 1680.65 108.18 1678.73 105.08C1674.31 97.9397 1666.6 95.3297 1659 94.2697C1652.01 93.2997 1645.12 95.6397 1640.06 101.13C1635.8 105.75 1639.3 114.84 1646.36 117.29C1656.81 120.91 1667.48 123.92 1677.86 127.7C1687.62 131.25 1696.77 136.43 1702.05 145.64C1707.91 155.84 1709.19 169.7 1700.78 181.07C1696.8 186.46 1692.63 191.51 1686.67 194.7C1684.12 196.07 1681.42 197.6 1678.63 198C1670.17 199.23 1661.65 200.18 1653.11 200.73C1649.88 200.94 1646.58 199.46 1643.28 199.28C1627.45 198.41 1616.78 189.19 1607.79 177.41C1605.17 173.97 1606.68 170.67 1610.58 168.65C1615.2 166.25 1619.89 163.85 1624.11 160.85C1627.59 158.37 1629.46 160.31 1631.03 162.62C1636.65 170.88 1643.93 176.01 1654.28 175.74C1660.84 175.57 1667.36 176.34 1673.41 172.03C1679.95 167.38 1680.36 159.33 1673.59 154.85C1665.24 149.33 1655.68 147.17 1646.34 144.1C1634.98 140.37 1623.12 136.93 1615.51 126.21C1608.56 116.42 1608.9 97.3197 1616.32 87.5797C1626.75 73.8697 1640.78 69.2197 1657.47 68.7197L1657.49 68.7297Z" fill="black"/>
<path d="M476.55 32.0701C476.67 34.2401 476.86 36.0201 476.87 37.8101C476.9 47.3101 477.06 56.8101 476.82 66.3001C476.7 71.0401 477.83 73.2801 483.21 72.8801C490.01 72.3801 496.87 72.8501 503.7 72.7201C506.46 72.6701 507.63 73.6301 507.59 76.4401C507.49 82.4401 507.5 88.4401 507.57 94.4401C507.61 97.6701 506.03 98.8401 502.94 98.8101C495.78 98.7401 488.61 98.9501 481.44 98.7801C478.16 98.7001 476.88 100.06 476.89 103.15C476.92 122.98 476.86 142.81 476.99 162.64C477.02 167.83 480.38 171.53 485.54 172.25C491.43 173.08 497.37 173.69 503.31 174.07C506.18 174.25 507.68 175.16 507.64 178.16C507.57 183.66 507.55 189.16 507.53 194.66C507.53 197.46 506.42 198.69 503.35 198.85C491.64 199.47 479.98 199.09 468.73 195.7C461.23 193.44 456.73 187.46 453.09 180.66C449.04 173.09 449.71 165.05 449.72 157C449.75 139.84 449.56 122.67 449.83 105.51C449.91 100.48 447.5 99.0101 443.3 98.8901C438.97 98.7601 434.64 98.7901 430.3 98.7901C427.4 98.7901 426 97.3601 425.99 94.5101C425.98 88.5101 426.03 82.5101 425.94 76.5101C425.9 73.7001 427.13 72.6601 429.87 72.7401C434.03 72.8601 438.2 72.7801 442.37 72.7401C449.66 72.6501 449.67 72.6301 449.7 65.5801C449.73 58.5801 450.05 51.5601 449.6 44.5901C449.35 40.5801 450.84 38.1301 454.2 36.9701C459.62 35.1001 465.16 33.5801 470.72 32.1501C472.4 31.7201 474.3 32.0801 476.54 32.0801L476.55 32.0701Z" fill="black"/>
<path d="M745.49 105.6C745.49 77.2899 745.55 48.9699 745.42 20.6599C745.4 16.5399 746.26 14.5299 750.91 14.8499C756.55 15.2399 762.23 15.0399 767.89 14.9099C771.71 14.8199 773.16 16.3899 773.11 20.2499C772.96 34.0699 773.05 47.8999 773.05 61.7199C773.05 104.53 773.05 147.33 773.03 190.14C773.03 197.36 771.85 198.55 764.66 198.6C760.16 198.64 755.66 198.42 751.17 198.64C747.03 198.84 745.48 197 745.5 193.04C745.55 183.71 745.42 174.39 745.41 165.06C745.39 145.24 745.41 125.42 745.41 105.6H745.48H745.49Z" fill="black"/>
<path d="M1025.67 134.97C1025.67 153.79 1025.69 172.6 1025.66 191.42C1025.65 198.21 1025.26 198.54 1018.68 198.56C1013.85 198.57 1009 198.29 1004.2 198.63C999.2 198.98 997.91 196.74 997.93 192.16C998.07 169.85 997.99 147.54 997.99 125.22C997.99 109.57 998.11 93.92 997.93 78.27C997.88 74.24 999.04 72.52 1003.25 72.71C1008.73 72.96 1014.25 73.02 1019.73 72.67C1024.28 72.38 1025.83 73.84 1025.77 78.53C1025.54 97.34 1025.67 116.16 1025.67 134.98V134.97Z" fill="black"/>
<path d="M713.17 135.32C713.17 153.8 713.19 172.28 713.17 190.77C713.16 197.98 712.49 198.57 705.52 198.46C701.36 198.39 697.19 198.43 693.03 198.39C687.11 198.33 685.44 196.66 685.44 190.56C685.42 162.92 685.43 135.28 685.43 107.64C685.43 98.1501 685.62 88.6501 685.35 79.1701C685.21 74.2901 687.28 72.5801 691.85 72.6901C697.01 72.8201 702.19 72.9801 707.33 72.6301C712.19 72.3001 713.26 74.5801 713.23 78.8601C713.1 97.6701 713.17 116.49 713.18 135.31L713.17 135.32Z" fill="black"/>
<path d="M1011.51 52.8898C1001.3 54.0598 994.421 44.1798 994.281 35.9798C994.131 27.1998 1004.72 18.2598 1012.51 18.8098C1020.54 19.3798 1029.26 26.0898 1028.89 37.0298C1028.59 45.9898 1021.89 53.9498 1011.51 52.8798V52.8898Z" fill="black"/>
<path d="M699.841 52.94C688.411 54.04 682.441 43.84 682.331 36.37C682.201 27.85 689.591 18.76 700.281 18.83C708.641 18.88 717.451 27.26 717.191 35.79C716.921 44.68 711.431 53.54 699.841 52.94Z" fill="black"/>
<path d="M267.392 105.997C262.182 105.997 256.152 106.397 250.202 105.897C242.862 105.277 235.982 102.667 229.042 100.167C223.522 98.1771 218.042 96.3171 213.132 93.0871C202.662 86.1771 192.792 78.6271 184.302 69.2171C178.062 62.2971 171.412 55.4671 163.542 50.4871C158.272 47.1471 151.922 45.5271 145.722 43.7071C137.162 41.1871 129.192 43.0171 121.282 44.5771C113.052 46.1971 106.062 51.2071 99.7121 56.7671C99.1021 57.2971 98.6821 58.5271 98.1321 58.5471C95.7021 58.6571 95.4321 63.5771 92.7521 61.4971C90.4321 59.7071 91.3821 56.1071 92.4821 54.0271C97.9021 43.7271 102.912 33.2171 111.302 24.6771C118.842 17.0071 127.592 11.4171 137.202 7.13712C143.972 4.11712 151.452 3.38711 158.782 2.25711C165.682 1.19711 172.842 -1.18291 179.472 0.707094C188.102 3.16709 197.062 1.71711 205.292 3.87711C213.982 6.15711 222.502 9.74711 230.312 15.0971C240.222 21.8771 249.352 29.4171 257.842 37.7571C262.412 42.2371 267.012 46.6871 271.582 51.1671C284.472 63.8171 300.442 65.9971 317.022 63.8371C325.912 62.6771 334.782 58.7971 339.312 49.9471C340.992 46.6571 344.552 46.9271 346.332 44.3471C347.342 42.8871 349.162 42.0071 350.232 40.5771C351.092 39.4171 351.302 37.5071 353.342 38.4271C355.212 39.2771 355.972 40.8771 355.442 42.9671C353.712 49.7471 350.972 56.1171 347.952 62.4371C344.012 70.6871 338.472 77.5671 332.242 84.1571C325.502 91.2871 317.892 96.1271 308.552 99.7871C295.312 104.987 282.052 106.687 267.402 106.007L267.392 105.997Z" fill="#2AB8D5"/>
<path d="M88.8218 108.587C94.3218 108.587 99.8218 108.627 105.312 108.587C112.912 108.517 119.322 112.517 126.322 114.507C133.602 116.587 139.112 121.267 145.302 125.097C154.952 131.067 162.732 138.987 170.452 147.027C177.322 154.187 184.722 160.787 193.192 165.797C197.432 168.297 202.482 170.187 207.752 170.317C218.022 170.577 228.332 171.427 238.122 167.007C244.662 164.057 249.642 159.027 255.232 154.807C256.022 154.207 256.602 153.137 257.462 152.877C259.242 152.337 259.462 148.257 261.892 150.337C263.462 151.687 262.912 154.607 262.012 156.517C256.592 168.017 251.442 179.737 242.272 188.937C235.402 195.827 227.512 201.027 218.622 205.347C204.942 211.997 190.592 213.107 176.002 213.087C166.902 213.077 157.582 212.757 148.772 210.757C137.522 208.197 127.212 202.967 117.512 196.287C102.962 186.277 92.3718 172.037 78.6118 161.287C70.1618 154.677 60.8018 150.267 49.6518 149.897C39.1318 149.557 29.2518 150.987 20.2318 156.687C14.9518 160.027 10.1518 163.977 5.41183 168.037C4.18183 169.087 3.48183 171.887 1.16183 170.287C-1.03817 168.777 0.44183 166.367 1.10183 164.797C6.75183 151.217 13.3418 138.197 24.6818 128.267C31.1118 122.637 38.3218 118.567 46.1718 114.977C59.9518 108.667 74.1918 107.877 88.8118 108.587H88.8218Z" fill="#2AB8D5"/>
</svg>
