<svg xmlns="http://www.w3.org/2000/svg" x="0px" y="0px" width="100" height="100" viewBox="0 0 64 64">
<path fill="#c2cde7" d="M45,42.22v-2.44c0.014-0.471-0.303-0.887-0.76-1l-5.09-1.27c-0.353-0.091-0.629-0.367-0.72-0.72 c-0.354-1.325-0.878-2.599-1.56-3.79c-0.179-0.309-0.179-0.691,0-1l2.7-4.51c0.235-0.393,0.174-0.896-0.15-1.22l-1.72-1.72 c-0.324-0.324-0.827-0.385-1.22-0.15L32,27.13c-0.309,0.179-0.691,0.179-1,0c-1.187-0.684-2.458-1.212-3.78-1.57 c-0.353-0.091-0.629-0.367-0.72-0.72l-1.27-5.09c-0.113-0.457-0.529-0.774-1-0.76h-2.45c-0.471-0.014-0.887,0.303-1,0.76 l-1.27,5.09c-0.091,0.353-0.367,0.629-0.72,0.72c-1.326,0.357-2.6,0.885-3.79,1.57c-0.309,0.179-0.691,0.179-1,0l-4.51-2.7 c-0.393-0.235-0.896-0.174-1.22,0.15l-1.69,1.73c-0.324,0.324-0.385,0.827-0.15,1.22L9.13,32c0.179,0.309,0.179,0.691,0,1 c-0.684,1.187-1.212,2.458-1.57,3.78c-0.091,0.353-0.367,0.629-0.72,0.72l-5.08,1.31c-0.457,0.113-0.774,0.529-0.76,1v2.44 c-0.014,0.471,0.303,0.887,0.76,1l5.09,1.27c0.353,0.091,0.629,0.367,0.72,0.72c0.357,1.315,0.881,2.579,1.56,3.76 c0.179,0.309,0.179,0.691,0,1l-2.7,4.51c-0.235,0.393-0.174,0.896,0.15,1.22l1.72,1.72c0.324,0.324,0.827,0.385,1.22,0.15 L14,54.87c0.309-0.179,0.691-0.179,1,0c1.187,0.684,2.458,1.212,3.78,1.57c0.353,0.091,0.629,0.367,0.72,0.72l1.27,5.09 c0.113,0.457,0.529,0.774,1,0.76h2.44c0.471,0.014,0.887-0.303,1-0.76l1.27-5.09c0.091-0.353,0.367-0.629,0.72-0.72 c1.329-0.356,2.607-0.884,3.8-1.57c0.309-0.179,0.691-0.179,1,0l4.51,2.7c0.393,0.235,0.896,0.174,1.22-0.15l1.72-1.72 c0.324-0.324,0.385-0.827,0.15-1.22L36.87,50c-0.179-0.309-0.179-0.691,0-1c0.684-1.187,1.212-2.458,1.57-3.78 c0.091-0.353,0.367-0.629,0.72-0.72l5.09-1.27C44.707,43.112,45.02,42.691,45,42.22z"></path><path fill="#acb7d0" d="M23,30c-6.075,0-11,4.925-11,11s4.925,11,11,11s11-4.925,11-11S29.075,30,23,30z"></path><circle cx="23" cy="41" r="6" fill="#f9dd8f"></circle><path fill="#183A67" d="M23,34c-3.866,0-7,3.134-7,7s3.134,7,7,7s7-3.134,7-7S26.866,34,23,34z M23,46 c-2.761,0-5-2.239-5-5s2.239-5,5-5s5,2.239,5,5S25.761,46,23,46z"></path><circle cx="23" cy="41" r="2" fill="#183A67"></circle><path fill="#183A67" d="M44.49,37.84l-5.09-1.28c-0.382-1.401-0.947-2.746-1.68-4L40.43,28 c0.471-0.786,0.347-1.791-0.3-2.44l-1.73-1.69c-0.649-0.647-1.654-0.771-2.44-0.3l-4.5,2.69c-1.255-0.726-2.6-1.285-4-1.66 l-1.27-5.09c-0.227-0.899-1.043-1.524-1.97-1.51h-2.44c-0.916,0-1.716,0.622-1.94,1.51l-1.28,5.09 c-1.401,0.382-2.746,0.947-4,1.68L10,23.57c-0.786-0.471-1.791-0.347-2.44,0.3L5.87,25.6c-0.627,0.642-0.75,1.623-0.3,2.4 l2.69,4.5c-0.727,1.255-1.285,2.6-1.66,4l-5.09,1.34C0.622,38.064,0,38.864,0,39.78v2.44c0,0.916,0.622,1.716,1.51,1.94 l5.09,1.28c0.382,1.401,0.947,2.746,1.68,4L5.57,54c-0.471,0.786-0.347,1.791,0.3,2.44l1.73,1.69 c0.649,0.647,1.654,0.771,2.44,0.3l4.5-2.69c1.255,0.727,2.6,1.285,4,1.66l1.27,5.09c0.227,0.899,1.043,1.524,1.97,1.51h2.44 c0.916,0,1.716-0.622,1.94-1.51l1.28-5.09c1.401-0.382,2.746-0.947,4-1.68L36,58.43c0.786,0.471,1.791,0.347,2.44-0.3l1.72-1.72 c0.647-0.649,0.771-1.654,0.3-2.44l-2.69-4.5c0.726-1.255,1.285-2.6,1.66-4l5.09-1.27c0.891-0.24,1.502-1.058,1.48-1.98v-2.44 C46,38.864,45.378,38.064,44.49,37.84z M44,42.22l-5.09,1.27c-0.704,0.18-1.255,0.727-1.44,1.43 c-0.335,1.238-0.83,2.428-1.47,3.54c-0.357,0.619-0.357,1.381,0,2L38.71,55L37,56.71L32.48,54c-0.619-0.357-1.381-0.357-2,0 c-1.112,0.64-2.302,1.134-3.54,1.47c-0.699,0.188-1.242,0.738-1.42,1.44L24.22,62h-2.44l-1.27-5.09 c-0.178-0.702-0.721-1.252-1.42-1.44c-1.242-0.335-2.435-0.829-3.55-1.47c-0.304-0.176-0.649-0.269-1-0.27 c-0.352,0.004-0.697,0.1-1,0.28L9,56.71L7.29,55l2.7-4.5c0.357-0.619,0.357-1.381,0-2c-0.64-1.112-1.134-2.302-1.47-3.54 c-0.185-0.703-0.736-1.25-1.44-1.43L2,42.22v-2.44l5.09-1.27c0.702-0.178,1.252-0.721,1.44-1.42 c0.335-1.242,0.829-2.435,1.47-3.55c0.357-0.619,0.357-1.381,0-2L7.29,27L9,25.29l4.5,2.7c0.619,0.357,1.381,0.357,2,0 c1.112-0.64,2.302-1.134,3.54-1.47c0.703-0.185,1.25-0.736,1.43-1.44L21.78,20h2.44l1.27,5.09c0.18,0.704,0.727,1.255,1.43,1.44 c1.238,0.336,2.428,0.83,3.54,1.47c0.619,0.357,1.381,0.357,2,0L37,25.29L38.71,27L36,31.52c-0.357,0.619-0.357,1.381,0,2 c0.64,1.112,1.134,2.302,1.47,3.54c0.188,0.699,0.738,1.242,1.44,1.42l5.09,1.3V42.22z"></path><g><path fill="#183A67" d="M15.07,47.2l-1.29,1.29c-0.389,0.392-0.387,1.026,0.005,1.415 c0.392,0.389,1.026,0.387,1.415-0.005l1.29-1.29c0.359-0.419,0.31-1.051-0.109-1.41c-0.374-0.321-0.927-0.321-1.301,0H15.07z"></path><path fill="#183A67" d="M14.56,44.35c-0.216-0.508-0.802-0.745-1.31-0.53l-1.67,0.71 c-0.516,0.196-0.776,0.773-0.581,1.289c0.196,0.516,0.773,0.776,1.289,0.581c0.024-0.009,0.048-0.019,0.071-0.03L14,45.66 c0.514-0.202,0.767-0.782,0.566-1.296C14.564,44.359,14.562,44.355,14.56,44.35z"></path><path fill="#183A67" d="M11,42h1.82c0.552,0,1-0.448,1-1s-0.448-1-1-1H11c-0.552,0-1,0.448-1,1S10.448,42,11,42z"></path><path fill="#183A67" d="M11.45,37.52l1.7,0.65c0.516,0.199,1.096-0.059,1.295-0.575c0.199-0.516-0.059-1.096-0.575-1.295 l-1.7-0.65c-0.516-0.199-1.096,0.059-1.295,0.575C10.676,36.741,10.934,37.321,11.45,37.52z"></path></g><g><path fill="#c2cde7" d="M62.36,10.68l-0.75-1.85l-4.18,0.79c-0.746-1.175-1.731-2.18-2.89-2.95L55.4,2.5l-1.84-0.78 l-2.4,3.51C49.791,4.927,48.373,4.916,47,5.2l-2.32-3.56l-1.85,0.75l0.79,4.18c-1.175,0.746-2.18,1.731-2.95,2.89L36.5,8.61 l-0.78,1.84l3.51,2.4c-0.289,1.361-0.289,2.769,0,4.13l-3.56,2.34l0.75,1.85l4.18-0.79c0.746,1.175,1.731,2.18,2.89,2.95 l-0.86,4.17l1.84,0.78l2.4-3.51c1.361,0.289,2.769,0.289,4.13,0l2.34,3.56l1.85-0.75L54.4,23.4c1.175-0.746,2.18-1.731,2.95-2.89 l4.17,0.86l0.78-1.84l-3.51-2.4c0.289-1.361,0.289-2.769,0-4.13L62.36,10.68z"></path><circle cx="49" cy="15" r="5" fill="#f9dd8f"></circle><path fill="#183A67" d="M49,9c-3.314,0-6,2.686-6,6s2.686,6,6,6s6-2.686,6-6S52.314,9,49,9z M49,19.24 c-2.342,0-4.24-1.898-4.24-4.24s1.898-4.24,4.24-4.24s4.24,1.898,4.24,4.24C53.234,17.339,51.339,19.234,49,19.24z"></path><circle cx="49" cy="15" r="2" fill="#183A67"></circle><path fill="#183A67" d="M62.84,18.72l-3-2c0.158-1.061,0.158-2.139,0-3.2l3-2c0.399-0.261,0.558-0.768,0.38-1.21 l-0.75-1.85c-0.178-0.442-0.642-0.697-1.11-0.61l-3.54,0.67c-0.63-0.867-1.385-1.635-2.24-2.28l0.73-3.53 c0.095-0.466-0.152-0.935-0.59-1.12L53.94,0.8c-0.44-0.187-0.952-0.036-1.22,0.36l-2,3c-1.061-0.158-2.139-0.158-3.2,0l-2-3 c-0.243-0.421-0.753-0.607-1.21-0.44l-1.85,0.75c-0.442,0.178-0.697,0.642-0.61,1.11l0.67,3.54 c-0.866,0.63-1.635,1.385-2.28,2.24l-3.53-0.73c-0.466-0.095-0.935,0.152-1.12,0.59l-0.78,1.84 c-0.187,0.44-0.036,0.952,0.36,1.22l3,2c-0.159,1.061-0.159,2.139,0,3.2l-3,2c-0.399,0.261-0.558,0.768-0.38,1.21l0.75,1.85 c0.178,0.442,0.642,0.697,1.11,0.61l3.54-0.67c0.63,0.867,1.385,1.635,2.24,2.28l-0.73,3.53c-0.095,0.466,0.152,0.935,0.59,1.12 l1.84,0.78c0.44,0.187,0.952,0.036,1.22-0.36l2-3c1.061,0.158,2.139,0.158,3.2,0l2,3c0.261,0.399,0.768,0.558,1.21,0.38 l1.85-0.75c0.442-0.178,0.697-0.642,0.61-1.11l-0.67-3.54c0.867-0.63,1.635-1.385,2.28-2.24l3.53,0.73 c0.466,0.095,0.935-0.152,1.12-0.59l0.78-1.84C63.398,19.436,63.226,18.963,62.84,18.72z M60.9,20.25l-3.36-0.7 c-0.389-0.067-0.781,0.102-1,0.43c-0.691,1.043-1.594,1.929-2.65,2.6c-0.332,0.217-0.504,0.609-0.44,1L54,27l-0.33,0.13 l-1.89-2.87c-0.172-0.269-0.462-0.44-0.78-0.46h-0.2c-1.223,0.261-2.487,0.261-3.71,0c-0.385-0.071-0.776,0.089-1,0.41l-2,2.79 l-0.33-0.14l0.7-3.36c0.067-0.389-0.102-0.781-0.43-1c-1.043-0.691-1.929-1.594-2.6-2.65c-0.217-0.332-0.609-0.504-1-0.44L37,20 l-0.13-0.33l2.87-1.89c0.328-0.219,0.497-0.611,0.43-1c-0.262-1.226-0.262-2.494,0-3.72c0.071-0.385-0.089-0.776-0.41-1L37,10.09 l0.14-0.33l3.36,0.7c0.389,0.067,0.781-0.102,1-0.43c0.691-1.043,1.594-1.929,2.65-2.6c0.332-0.217,0.504-0.609,0.44-1L44,3 l0.33-0.13l1.89,2.87c0.219,0.328,0.611,0.497,1,0.43c1.226-0.261,2.494-0.261,3.72,0c0.385,0.071,0.776-0.089,1-0.41L53.91,3 l0.33,0.14l-0.7,3.36c-0.067,0.389,0.102,0.781,0.43,1c1.043,0.691,1.929,1.594,2.6,2.65c0.217,0.332,0.609,0.504,1,0.44L61,10 l0.13,0.33l-2.87,1.89c-0.328,0.219-0.497,0.611-0.43,1c0.262,1.226,0.262,2.494,0,3.72c-0.071,0.385,0.089,0.776,0.41,1 L61,19.91L60.9,20.25z"></path></g><g><path fill="#183A67" d="M18.843,31.712c-0.388,0-0.757-0.226-0.92-0.604c-0.218-0.506,0.013-1.092,0.518-1.312 c0.166-0.072,4.09-1.736,8.689-0.054c0.519,0.189,0.786,0.764,0.596,1.282c-0.189,0.519-0.764,0.786-1.282,0.596 c-3.824-1.397-7.174-0.003-7.208,0.012C19.108,31.686,18.975,31.712,18.843,31.712z"></path><path fill="#183A67" d="M31.767,35.063c-0.308,0-0.611-0.142-0.807-0.408c-0.246-0.336-1.055-1.09-1.526-1.483 c-0.424-0.354-0.481-0.984-0.127-1.408c0.354-0.424,0.985-0.48,1.409-0.127c0.341,0.285,1.415,1.233,1.857,1.835 c0.327,0.445,0.23,1.071-0.215,1.398C32.179,35.001,31.972,35.063,31.767,35.063z"></path></g>
</svg>